<?xml version="1.0" standalone="no"?>
<!DOCTYPE svg PUBLIC "-//W3C//DTD SVG 20010904//EN"
 "http://www.w3.org/TR/2001/REC-SVG-20010904/DTD/svg10.dtd">
<svg version="1.0" xmlns="http://www.w3.org/2000/svg"
 width="256.000000pt" height="256.000000pt" viewBox="0 0 256.000000 256.000000"
 preserveAspectRatio="xMidYMid meet">

<g transform="translate(0.000000,256.000000) scale(0.100000,-0.100000)"
fill="#000000" stroke="none">
<path d="M1130 2554 c-157 -20 -338 -80 -475 -158 -250 -142 -455 -372 -557
-626 -78 -194 -92 -268 -92 -490 0 -222 14 -296 92 -490 122 -301 391 -570
692 -692 194 -78 268 -92 490 -92 222 0 296 14 490 92 301 122 570 391 692
692 78 194 92 268 92 490 0 222 -14 296 -92 490 -122 301 -391 570 -692 692
-174 70 -268 89 -455 93 -82 2 -166 1 -185 -1z m-522 -553 c22 -19 22 -24 22
-230 l0 -210 78 40 c185 96 391 67 535 -74 96 -95 137 -193 137 -332 0 -237
-154 -421 -383 -457 -155 -24 -285 18 -393 126 -70 70 -107 138 -124 226 -6
30 -10 230 -10 467 l0 414 25 24 c29 30 80 33 113 6z m971 -378 c11 -10 61
-73 110 -141 49 -68 92 -123 96 -123 3 0 47 56 96 123 50 68 100 131 111 141
26 22 105 23 136 1 40 -28 31 -53 -75 -189 -19 -24 -121 -163 -141 -192 l-23
-32 141 -191 c141 -192 159 -227 128 -258 -16 -16 -120 -15 -140 1 -8 6 -64
78 -122 160 -59 81 -109 147 -111 147 -2 0 -57 -72 -121 -160 l-117 -160 -61
0 c-35 0 -67 5 -74 12 -13 13 -17 74 -4 80 4 2 23 26 42 54 19 28 45 64 58 80
12 16 56 76 97 132 74 104 74 104 57 130 -9 15 -19 29 -22 32 -11 10 -199 269
-209 289 -13 23 0 66 21 74 31 13 106 6 127 -10z"/>
<path d="M861 1484 c-92 -19 -152 -68 -196 -159 -35 -71 -35 -188 0 -263 50
-109 140 -165 261 -165 83 1 141 24 198 79 60 59 86 124 86 219 0 95 -18 142
-81 210 -69 74 -159 101 -268 79z"/>
</g>
</svg>
